<svg xmlns="http://www.w3.org/2000/svg" xmlns:xlink="http://www.w3.org/1999/xlink" width="2000" zoomAndPan="magnify" viewBox="0 0 1500 1499.999933" height="2000" preserveAspectRatio="xMidYMid meet" version="1.0"><title>Site favicon</title><defs><g/><clipPath id="3dd7d1dab2"><rect x="0" width="956" y="0" height="495"/></clipPath><clipPath id="697bb152bc"><path d="M 1276.175781 826.128906 L 1357.375 826.128906 L 1357.375 907.332031 L 1276.175781 907.332031 Z M 1276.175781 826.128906 " clip-rule="nonzero"/></clipPath><clipPath id="192d7f6f28"><path d="M 1316.777344 826.128906 C 1294.351562 826.128906 1276.175781 844.308594 1276.175781 866.730469 C 1276.175781 889.152344 1294.351562 907.332031 1316.777344 907.332031 C 1339.199219 907.332031 1357.375 889.152344 1357.375 866.730469 C 1357.375 844.308594 1339.199219 826.128906 1316.777344 826.128906 Z M 1316.777344 826.128906 " clip-rule="nonzero"/></clipPath><clipPath id="d10a036541"><path d="M 0.175781 0.128906 L 81.375 0.128906 L 81.375 81.332031 L 0.175781 81.332031 Z M 0.175781 0.128906 " clip-rule="nonzero"/></clipPath><clipPath id="7ec7e6b948"><path d="M 40.777344 0.128906 C 18.351562 0.128906 0.175781 18.308594 0.175781 40.730469 C 0.175781 63.152344 18.351562 81.332031 40.777344 81.332031 C 63.199219 81.332031 81.375 63.152344 81.375 40.730469 C 81.375 18.308594 63.199219 0.128906 40.777344 0.128906 Z M 40.777344 0.128906 " clip-rule="nonzero"/></clipPath><clipPath id="fc08328c2d"><rect x="0" width="82" y="0" height="82"/></clipPath></defs><rect x="-150" width="1800" fill="#ffffff" y="-149.999993" height="1799.99992" fill-opacity="1"/><rect x="-150" width="1800" fill="#eeede9" y="-149.999993" height="1799.99992" fill-opacity="1"/><g transform="matrix(1, 0, 0, 1, 248, 502)"><g clip-path="url(#3dd7d1dab2)"><g fill="#1b1b1b" fill-opacity="1"><g transform="translate(1.520942, 388.061835)"><g><path d="M 65.703125 -366.09375 C 73.285156 -366.09375 80.945312 -366.09375 88.6875 -366.09375 C 96.425781 -366.09375 104.082031 -366.09375 111.65625 -366.09375 C 131.75 -366.425781 152.5 -365.023438 173.90625 -361.890625 C 195.320312 -358.765625 215.25 -353.414062 233.6875 -345.84375 C 273.21875 -329.707031 300.882812 -303.6875 316.6875 -267.78125 C 324.59375 -249.664062 329.695312 -229.898438 332 -208.484375 C 334.3125 -187.078125 333.738281 -165.75 330.28125 -144.5 C 326.820312 -123.257812 320.316406 -103.742188 310.765625 -85.953125 C 301.210938 -68.171875 288.367188 -53.847656 272.234375 -42.984375 C 255.765625 -31.785156 239.785156 -23.054688 224.296875 -16.796875 C 208.816406 -10.535156 194.492188 -6.582031 181.328125 -4.9375 C 165.835938 -3.625 150.269531 -2.71875 134.625 -2.21875 C 118.976562 -1.726562 103.253906 -1.484375 87.453125 -1.484375 C 79.546875 -1.484375 71.640625 -1.5625 63.734375 -1.71875 C 55.828125 -1.882812 47.757812 -2.132812 39.53125 -2.46875 C 34.914062 -2.46875 29.148438 -1.890625 22.234375 -0.734375 C 15.316406 0.410156 9.878906 -1.15625 5.921875 -5.4375 C 2.628906 -9.382812 1.144531 -15.472656 1.46875 -23.703125 C 1.800781 -31.941406 1.96875 -38.535156 1.96875 -43.484375 C 2.300781 -72.796875 2.46875 -101.941406 2.46875 -130.921875 C 2.46875 -159.910156 2.632812 -188.894531 2.96875 -217.875 C 2.96875 -231.707031 3.046875 -245.457031 3.203125 -259.125 C 3.367188 -272.800781 3.289062 -286.554688 2.96875 -300.390625 C 2.96875 -305.003906 2.472656 -310.519531 1.484375 -316.9375 C 0.492188 -323.363281 0 -329.867188 0 -336.453125 C 0 -343.046875 1.066406 -348.972656 3.203125 -354.234375 C 5.347656 -359.503906 9.382812 -363.128906 15.3125 -365.109375 C 17.625 -365.765625 19.929688 -366.175781 22.234375 -366.34375 C 24.535156 -366.507812 26.84375 -366.59375 29.15625 -366.59375 C 35.40625 -366.59375 41.492188 -366.59375 47.421875 -366.59375 C 53.359375 -366.59375 59.453125 -366.425781 65.703125 -366.09375 Z M 135.859375 -299.40625 C 128.617188 -299.726562 121.207031 -299.640625 113.625 -299.140625 C 106.050781 -298.648438 98.644531 -297.914062 91.40625 -296.9375 C 85.800781 -296.269531 82.257812 -292.972656 80.78125 -287.046875 C 79.300781 -281.117188 78.890625 -274.78125 79.546875 -268.03125 C 80.203125 -261.28125 80.53125 -255.765625 80.53125 -251.484375 C 80.195312 -242.253906 80.03125 -232.863281 80.03125 -223.3125 C 80.03125 -213.757812 80.03125 -204.207031 80.03125 -194.65625 C 80.03125 -176.21875 80.03125 -157.609375 80.03125 -138.828125 C 80.03125 -120.054688 80.03125 -101.445312 80.03125 -83 C 80.03125 -76.738281 83.488281 -72.375 90.40625 -69.90625 C 97.320312 -67.4375 105.640625 -66.203125 115.359375 -66.203125 C 125.078125 -66.203125 134.382812 -66.773438 143.28125 -67.921875 C 152.175781 -69.078125 158.429688 -69.820312 162.046875 -70.15625 C 175.554688 -72.132812 188.484375 -76.25 200.828125 -82.5 C 213.179688 -88.757812 223.96875 -96.992188 233.1875 -107.203125 C 242.414062 -117.421875 248.675781 -129.445312 251.96875 -143.28125 C 255.257812 -155.132812 257.070312 -167.976562 257.40625 -181.8125 C 257.738281 -195.644531 256.253906 -209.226562 252.953125 -222.5625 C 249.660156 -235.90625 243.898438 -247.519531 235.671875 -257.40625 C 222.828125 -273.21875 207.675781 -284.085938 190.21875 -290.015625 C 172.757812 -295.941406 154.640625 -299.070312 135.859375 -299.40625 Z M 135.859375 -299.40625 "/></g></g></g><g fill="#1b1b1b" fill-opacity="1"><g transform="translate(335.995435, 388.061835)"><g><path d="M 150.1875 -148.71875 C 138.988281 -149.375 127.707031 -149.367188 116.34375 -148.703125 C 104.988281 -148.046875 95.191406 -143.929688 86.953125 -136.359375 C 80.367188 -130.429688 76.332031 -122.609375 74.84375 -112.890625 C 73.363281 -103.171875 73.117188 -93.125 74.109375 -82.75 C 75.097656 -72.375 75.753906 -63.234375 76.078125 -55.328125 C 76.410156 -51.378906 76.90625 -46.441406 77.5625 -40.515625 C 78.226562 -34.585938 78.640625 -28.65625 78.796875 -22.71875 C 78.960938 -16.789062 78.054688 -12.019531 76.078125 -8.40625 C 73.453125 -3.457031 68.925781 -0.734375 62.5 -0.234375 C 56.070312 0.253906 49.316406 -0.15625 42.234375 -1.46875 C 35.160156 -2.789062 29.316406 -3.453125 24.703125 -3.453125 C 16.140625 -3.453125 9.960938 -3.695312 6.171875 -4.1875 C 2.390625 -4.6875 0.5 -9.550781 0.5 -18.78125 C 0.5 -36.226562 0.5 -53.597656 0.5 -70.890625 C 0.5 -88.191406 0.5 -105.40625 0.5 -122.53125 C 0.820312 -158.757812 0.984375 -195.234375 0.984375 -231.953125 C 0.984375 -268.679688 0.65625 -305.160156 0 -341.390625 C 0 -352.585938 1.484375 -359.671875 4.453125 -362.640625 C 7.085938 -365.273438 12.847656 -366.59375 21.734375 -366.59375 C 22.398438 -366.59375 23.0625 -366.59375 23.71875 -366.59375 C 24.375 -366.59375 24.867188 -366.59375 25.203125 -366.59375 C 30.796875 -366.257812 35.734375 -366.09375 40.015625 -366.09375 C 44.296875 -366.09375 48.25 -366.09375 51.875 -366.09375 C 55.5 -366.09375 59.203125 -366.175781 62.984375 -366.34375 C 66.773438 -366.507812 70.070312 -365.929688 72.875 -364.609375 C 75.675781 -363.296875 77.078125 -360.171875 77.078125 -355.234375 C 77.078125 -340.734375 76.992188 -326.15625 76.828125 -311.5 C 76.660156 -296.84375 76.578125 -282.101562 76.578125 -267.28125 C 76.578125 -264.320312 76.25 -259.546875 75.59375 -252.953125 C 74.9375 -246.367188 74.6875 -239.535156 74.84375 -232.453125 C 75.007812 -225.367188 76.082031 -219.359375 78.0625 -214.421875 C 80.039062 -209.484375 83.664062 -207.015625 88.9375 -207.015625 C 94.207031 -207.015625 99.3125 -206.929688 104.25 -206.765625 C 109.1875 -206.597656 114.125 -206.515625 119.0625 -206.515625 C 123.675781 -206.515625 128.285156 -206.515625 132.890625 -206.515625 C 137.503906 -206.515625 142.117188 -206.515625 146.734375 -206.515625 C 152.660156 -206.515625 160.5625 -206.101562 170.4375 -205.28125 C 180.320312 -204.457031 189.957031 -204.207031 199.34375 -204.53125 C 208.738281 -204.863281 215.90625 -207.007812 220.84375 -210.96875 C 225.457031 -214.59375 228.257812 -219.203125 229.25 -224.796875 C 230.238281 -230.398438 230.566406 -236.25 230.234375 -242.34375 C 229.898438 -248.4375 229.734375 -254.113281 229.734375 -259.375 C 230.398438 -273.875 230.566406 -288.453125 230.234375 -303.109375 C 229.898438 -317.765625 229.734375 -332.335938 229.734375 -346.828125 C 229.410156 -352.753906 230.070312 -357.445312 231.71875 -360.90625 C 233.363281 -364.363281 237.316406 -366.09375 243.578125 -366.09375 C 250.160156 -366.09375 256.660156 -366.09375 263.078125 -366.09375 C 269.503906 -366.09375 275.847656 -366.09375 282.109375 -366.09375 C 289.679688 -365.769531 295.113281 -365.609375 298.40625 -365.609375 C 301.707031 -365.609375 303.519531 -361.488281 303.84375 -353.25 C 304.832031 -341.0625 305 -328.628906 304.34375 -315.953125 C 303.6875 -303.273438 303.359375 -290.675781 303.359375 -278.15625 C 303.359375 -263.007812 303.359375 -247.859375 303.359375 -232.703125 C 303.359375 -217.546875 303.359375 -202.226562 303.359375 -186.75 C 303.359375 -168.632812 303.847656 -150.601562 304.828125 -132.65625 C 305.816406 -114.707031 306.476562 -96.675781 306.8125 -78.5625 C 306.8125 -75.59375 306.972656 -70.238281 307.296875 -62.5 C 307.628906 -54.757812 307.628906 -46.359375 307.296875 -37.296875 C 306.972656 -28.242188 305.738281 -20.421875 303.59375 -13.828125 C 301.457031 -7.242188 297.921875 -3.785156 292.984375 -3.453125 C 283.753906 -3.128906 274.53125 -3.046875 265.3125 -3.203125 C 256.09375 -3.367188 246.867188 -3.453125 237.640625 -3.453125 C 232.367188 -3.453125 229.320312 -6.25 228.5 -11.84375 C 227.675781 -17.445312 227.84375 -23.625 229 -30.375 C 230.15625 -37.132812 230.734375 -42.160156 230.734375 -45.453125 C 231.390625 -56.984375 231.71875 -68.675781 231.71875 -80.53125 C 231.71875 -92.382812 230.894531 -104.242188 229.25 -116.109375 C 227.925781 -124.992188 224.546875 -131.820312 219.109375 -136.59375 C 213.679688 -141.375 207.097656 -144.585938 199.359375 -146.234375 C 191.617188 -147.890625 183.796875 -148.382812 175.890625 -147.71875 C 171.929688 -147.71875 167.8125 -147.800781 163.53125 -147.96875 C 159.25 -148.132812 154.800781 -148.382812 150.1875 -148.71875 Z M 150.1875 -148.71875 "/></g></g></g><g fill="#1b1b1b" fill-opacity="1"><g transform="translate(644.779126, 388.061835)"><g><path d="M 98.3125 -113.140625 C 90.40625 -113.140625 84.554688 -109.679688 80.765625 -102.765625 C 76.984375 -95.847656 74.597656 -87.445312 73.609375 -77.5625 C 72.628906 -67.6875 72.300781 -58.132812 72.625 -48.90625 C 72.957031 -39.6875 73.285156 -32.769531 73.609375 -28.15625 C 74.273438 -23.550781 74.6875 -18.613281 74.84375 -13.34375 C 75.007812 -8.070312 72.457031 -4.28125 67.1875 -1.96875 C 63.5625 -0.65625 59.363281 -0.410156 54.59375 -1.234375 C 49.820312 -2.054688 45.457031 -2.300781 41.5 -1.96875 C 39.195312 -1.96875 35.078125 -1.722656 29.140625 -1.234375 C 23.210938 -0.742188 17.445312 -0.742188 11.84375 -1.234375 C 6.25 -1.722656 2.796875 -3.285156 1.484375 -5.921875 C 1.148438 -6.910156 0.984375 -8.722656 0.984375 -11.359375 C 0.984375 -29.804688 0.984375 -48.25 0.984375 -66.6875 C 0.984375 -85.132812 0.984375 -103.421875 0.984375 -121.546875 C 0.984375 -156.453125 0.984375 -191.441406 0.984375 -226.515625 C 0.984375 -261.597656 0.820312 -296.597656 0.5 -331.515625 C 0.5 -338.097656 0.910156 -344.847656 1.734375 -351.765625 C 2.554688 -358.679688 6.921875 -363.296875 14.828125 -365.609375 C 21.410156 -367.585938 28.320312 -367.832031 35.5625 -366.34375 C 42.8125 -364.863281 49.894531 -363.957031 56.8125 -363.625 C 81.519531 -362.3125 106.222656 -361.242188 130.921875 -360.421875 C 155.628906 -359.597656 180.5 -357.703125 205.53125 -354.734375 C 211.125 -354.078125 216.640625 -353.085938 222.078125 -351.765625 C 227.515625 -350.453125 232.867188 -348.644531 238.140625 -346.34375 C 256.910156 -338.4375 270.164062 -325.914062 277.90625 -308.78125 C 285.644531 -291.65625 290.175781 -273.539062 291.5 -254.4375 C 292.15625 -241.257812 291.328125 -228.164062 289.015625 -215.15625 C 286.710938 -202.15625 282.4375 -189.890625 276.1875 -178.359375 C 272.882812 -172.753906 269.253906 -167.316406 265.296875 -162.046875 C 261.347656 -156.773438 256.90625 -151.835938 251.96875 -147.234375 C 249.988281 -145.253906 247.023438 -142.945312 243.078125 -140.3125 C 239.128906 -137.675781 235.753906 -134.875 232.953125 -131.90625 C 230.148438 -128.945312 228.914062 -125.65625 229.25 -122.03125 C 229.570312 -120.71875 230.0625 -119.398438 230.71875 -118.078125 C 231.382812 -116.765625 232.046875 -115.285156 232.703125 -113.640625 C 240.609375 -101.773438 249.171875 -90.328125 258.390625 -79.296875 C 267.617188 -68.265625 276.347656 -56.984375 284.578125 -45.453125 C 288.203125 -40.179688 292.070312 -34.910156 296.1875 -29.640625 C 300.300781 -24.367188 303.515625 -18.769531 305.828125 -12.84375 C 306.484375 -11.195312 307.140625 -9.21875 307.796875 -6.90625 C 308.453125 -4.601562 307.628906 -2.796875 305.328125 -1.484375 C 304.335938 -1.148438 302.859375 -0.984375 300.890625 -0.984375 C 293.304688 -0.984375 285.726562 -0.898438 278.15625 -0.734375 C 270.582031 -0.578125 263.007812 -0.5 255.4375 -0.5 C 247.851562 -0.5 240.191406 -0.660156 232.453125 -0.984375 C 224.710938 -1.316406 217.878906 -4.28125 211.953125 -9.875 C 207.671875 -14.15625 204.046875 -19.015625 201.078125 -24.453125 C 198.117188 -29.890625 194.828125 -35.078125 191.203125 -40.015625 C 184.941406 -49.566406 178.4375 -59.035156 171.6875 -68.421875 C 164.9375 -77.816406 157.769531 -86.957031 150.1875 -95.84375 C 140.96875 -105.726562 124.007812 -111.492188 99.3125 -113.140625 C 98.976562 -113.140625 98.8125 -113.140625 98.8125 -113.140625 C 98.8125 -113.140625 98.644531 -113.140625 98.3125 -113.140625 Z M 78.0625 -203.0625 C 79.707031 -195.8125 83.90625 -190.457031 90.65625 -187 C 97.40625 -183.539062 105.3125 -181.398438 114.375 -180.578125 C 123.4375 -179.753906 132.328125 -179.753906 141.046875 -180.578125 C 149.773438 -181.398438 156.773438 -182.472656 162.046875 -183.796875 C 176.546875 -187.410156 189.144531 -194.238281 199.84375 -204.28125 C 210.550781 -214.332031 215.90625 -227.265625 215.90625 -243.078125 C 215.90625 -254.929688 213.019531 -264.8125 207.25 -272.71875 C 201.488281 -280.625 194 -286.878906 184.78125 -291.484375 C 175.5625 -296.097656 165.597656 -299.144531 154.890625 -300.625 C 144.179688 -302.113281 133.890625 -302.363281 124.015625 -301.375 C 119.734375 -301.050781 114.296875 -300.394531 107.703125 -299.40625 C 101.117188 -298.414062 95.109375 -296.6875 89.671875 -294.21875 C 84.234375 -291.75 80.859375 -287.710938 79.546875 -282.109375 C 73.285156 -255.429688 72.789062 -229.082031 78.0625 -203.0625 Z M 78.0625 -203.0625 "/></g></g></g></g></g><g clip-path="url(#697bb152bc)"><g clip-path="url(#192d7f6f28)"><g transform="matrix(1, 0, 0, 1, 1276, 826)"><g clip-path="url(#fc08328c2d)"><g clip-path="url(#d10a036541)"><g clip-path="url(#7ec7e6b948)"><path fill="#1b1b1b" d="M 0.175781 0.128906 L 81.375 0.128906 L 81.375 81.332031 L 0.175781 81.332031 Z M 0.175781 0.128906 " fill-opacity="1" fill-rule="nonzero"/></g></g></g></g></g></g></svg>
